<svg version="1.2" xmlns="http://www.w3.org/2000/svg" viewBox="0 0 32 32" width="32" height="32"><style>.a{fill:#f0b90b}</style><path class="a" d="m6 16v5.9l5.1 2.9v3.5l-8-4.7v-9.3zm0-5.9v3.5l-2.8-1.8v-3.4l2.8-1.8 2.9 1.8zm7.1-1.8l2.9-1.7 2.9 1.7-2.9 1.8z"/><path class="a" d="m8.1 20.7v-3.5l3 1.7v3.5zm4.9 5.3l2.9 1.8 3-1.8v3.5l-3 1.7-2.9-1.7zm10-17.6l2.9-1.7 2.8 1.7v3.3l-2.8 1.8v-3.5zm2.8 13.5v-5.9l3-1.7v9.3l-7.9 4.7v-3.5z"/><path fill-rule="evenodd" class="a" d="m23.9 20.7l-3 1.7v-3.5l3-1.7z"/><path class="a" d="m23.9 11.3v3.5l-5 2.9v5.9l-2.9 1.7-2.9-1.7v-5.9l-5-2.9v-3.5l3-1.7 4.9 2.9 4.9-2.9zm-15.7-5.9l7.9-4.6 7.8 4.6-2.8 1.8-5-3-5 3z"/></svg>