<svg version="1.2" xmlns="http://www.w3.org/2000/svg" viewBox="0 0 32 32" width="32" height="32"><style>.a{fill:#3e73c4}.b{fill:#fff}</style><path fill-rule="evenodd" class="a" d="m16 32c-8.8 0-16-7.2-16-16 0-8.8 7.2-16 16-16 8.8 0 16 7.2 16 16 0 8.8-7.2 16-16 16z"/><path class="b" d="m20 18.1c0-2.1-1.2-2.8-3.9-3.2-1.7-0.2-2.1-0.6-2.1-1.6 0-0.8 0.5-1.3 1.9-1.3 1 0 1.6 0.4 2 1.3q0.1 0.2 0.1 0.2 0 0 0.1 0.1 0 0 0.2 0h0.9q0.1 0 0.1 0 0.2-0.1 0.3-0.1 0-0.2 0-0.2 0-0.1 0-0.1v-0.1q0-0.6-0.3-1-0.2-0.4-0.6-0.8-0.3-0.2-0.8-0.5-0.4-0.1-1-0.3v-1.3c0-0.3-0.2-0.5-0.5-0.5h-0.9c-0.2 0-0.4 0.1-0.4 0.5v1.3c-1.9 0.3-3.1 1.5-3.1 3 0 2 1.2 2.8 3.9 3.2 1.6 0.2 2.2 0.6 2.2 1.6 0 0.9-0.9 1.6-2.1 1.6-1.5 0-2.1-0.7-2.3-1.6 0-0.3-0.2-0.3-0.4-0.3h-1q-0.2 0-0.2 0-0.1 0-0.1 0-0.1 0.1-0.1 0.3 0 0 0 0.1c0.2 1.6 1.2 2.7 3.2 2.9v1.5c0 0.3 0.2 0.4 0.5 0.5h0.9c0.2 0 0.4-0.2 0.4-0.5v-1.5c1.9-0.2 3.1-1.6 3.1-3.2z"/><path class="b" d="m12.9 24.5c-4.8-1.7-7.2-7-5.4-11.7 0.9-2.5 2.9-4.4 5.4-5.3q0.3-0.2 0.3-0.7v-0.8q0-0.4-0.3-0.5c-0.1 0-0.2 0-0.2 0.1q-2.2 0.7-3.8 2-1.7 1.5-2.6 3.3-1.1 2-1.2 4.2-0.3 2.1 0.4 4.2c1.2 3.4 3.7 6 7.2 7.1 0.2 0.1 0.5 0 0.5-0.3q0.1-0.1 0-0.2v-0.8c0-0.3-0.1-0.4-0.3-0.6zm6.4-18.9c-0.2-0.1-0.5 0-0.5 0.3 0 0 0 0 0 0.1v0.9c0 0.3 0.1 0.4 0.3 0.6 4.8 1.7 7.2 7 5.4 11.7-0.9 2.5-2.9 4.4-5.4 5.3q-0.3 0.2-0.3 0.7v0.8q0 0.4 0.3 0.5c0.1 0 0.2 0 0.2-0.1q2.2-0.7 3.8-2 1.7-1.5 2.6-3.3 1.1-2 1.2-4.2 0.3-2.1-0.4-4.2c-1.2-3.5-3.8-6-7.2-7.1z"/></svg>